<svg width="13" height="28" viewBox="0 0 13 28" fill="none" xmlns="http://www.w3.org/2000/svg">
<path fill-rule="evenodd" clip-rule="evenodd" d="M3.09108 14.371V27.3511C3.09108 27.5387 3.23771 27.6872 3.42292 27.6872H8.18448C8.36969 27.6872 8.51632 27.5387 8.51632 27.3511V14.16H11.9659C12.1357 14.16 12.2823 14.0271 12.2978 13.8474L12.6296 9.87752C12.6451 9.68215 12.4907 9.51023 12.2978 9.51023H8.51632V6.68913C8.51632 6.02488 9.04881 5.49348 9.69706 5.49348H12.3595C12.5447 5.49348 12.6914 5.34501 12.6914 5.15745V1.17978C12.6914 0.992229 12.5447 0.84375 12.3595 0.84375H7.86807C5.22876 0.84375 3.09108 3.00842 3.09108 5.68104V9.51023H0.714167C0.528953 9.51023 0.382324 9.65871 0.382324 9.84626V13.8161C0.382324 14.0037 0.528953 14.1521 0.714167 14.1521H3.09108V14.371Z" fill="#553D67"/>
</svg>
