<svg width="28" height="29" viewBox="0 0 28 29" fill="none" xmlns="http://www.w3.org/2000/svg">
<path d="M21.2518 5.65769C20.3566 5.65769 19.6235 6.39227 19.6235 7.30659C19.6235 8.21309 20.3489 8.95548 21.2518 8.95548C22.147 8.95548 22.8802 8.2209 22.8802 7.30659C22.8724 6.39227 22.147 5.65769 21.2518 5.65769ZM14.0208 7.76765C10.2547 7.76765 7.19097 10.8701 7.19097 14.6836C7.19097 18.4972 10.2547 21.5996 14.0208 21.5996C17.7868 21.5996 20.8505 18.4972 20.8505 14.6836C20.8505 10.8701 17.7868 7.76765 14.0208 7.76765ZM14.0208 19.1068C11.6052 19.1068 9.64507 17.1218 9.64507 14.6758C9.64507 12.2298 11.6052 10.2449 14.0208 10.2449C16.4363 10.2449 18.3964 12.2298 18.3964 14.6758C18.3964 17.1218 16.4363 19.1068 14.0208 19.1068ZM27.7961 8.93204C27.7961 4.27449 24.0686 0.5 19.4691 0.5H8.47976C3.88028 0.5 0.152832 4.27449 0.152832 8.93204V20.0601C0.152832 24.7177 3.88028 28.4922 8.47976 28.4922H19.4691C24.0686 28.4922 27.7961 24.7177 27.7961 20.0601V8.93204ZM25.1876 20.068C25.1876 23.2642 22.6255 25.8586 19.4691 25.8586H8.47976C5.3234 25.8586 2.76127 23.2642 2.76127 20.068V8.93204C2.76127 5.73584 5.3234 3.14136 8.47976 3.14136H19.4691C22.6255 3.14136 25.1876 5.73584 25.1876 8.93204V20.068Z" fill="#553D67"/>
</svg>
