<svg width="24" height="24" viewBox="0 0 24 24" fill="none" xmlns="http://www.w3.org/2000/svg">
<path d="M23.8032 14.3243V22.6703C23.8032 22.8735 23.6411 23.0454 23.4328 23.0454H19.1806C18.9799 23.0454 18.8101 22.8813 18.8101 22.6703V14.9104C18.8101 12.8707 18.0924 11.4719 16.2789 11.4719C14.8975 11.4719 14.0795 12.4097 13.7167 13.324C13.5855 13.6522 13.5547 14.0976 13.5547 14.5587V22.6781C13.5547 22.8813 13.3926 23.0533 13.1842 23.0533H8.93205C8.7314 23.0533 8.56161 22.8891 8.56161 22.6781C8.56933 20.6151 8.61564 10.581 8.56934 8.2288C8.56162 8.01781 8.73139 7.8537 8.93975 7.8537H13.1842C13.3849 7.8537 13.5547 8.01781 13.5547 8.2288V10.0105C13.547 10.0262 13.5315 10.0418 13.5238 10.0574H13.5547V10.0105C14.2184 8.97901 15.3991 7.50204 18.0538 7.50204C21.3414 7.48641 23.8032 9.65889 23.8032 14.3243ZM1.18391 23.0454H5.43613C5.63678 23.0454 5.80655 22.8813 5.80655 22.6703V8.21317C5.80655 8.00999 5.6445 7.83807 5.43613 7.83807H1.18391C0.983265 7.83807 0.813477 8.00218 0.813477 8.21317V22.6703C0.813477 22.8813 0.983265 23.0454 1.18391 23.0454Z" fill="#553D67"/>
<path d="M5.83742 3.20392C5.83742 4.69652 4.64125 5.9078 3.16726 5.9078C1.69326 5.9078 0.49707 4.69652 0.49707 3.20392C0.49707 1.71131 1.69326 0.500037 3.16726 0.500037C4.64125 0.492223 5.83742 1.71131 5.83742 3.20392Z" fill="#553D67"/>
</svg>
