<svg width="105" height="113" viewBox="0 0 105 113" fill="none" xmlns="http://www.w3.org/2000/svg">
<path d="M103.627 74.478L97.9434 73.0141C97.4759 71.3993 96.833 69.8297 96.0587 68.3356L99.0683 63.144C99.492 62.4045 99.3897 61.4688 98.7907 60.8652L93.1368 55.0246C92.5524 54.4209 91.632 54.3002 90.9307 54.7379L85.905 57.8468C85.2475 57.4846 84.5901 57.1526 83.9034 56.8507C83.0707 56.4885 82.2233 56.1716 81.376 55.9L79.9588 50.0292C79.7543 49.1992 79.0384 48.6106 78.2057 48.6106H70.2141C69.3814 48.6106 68.6655 49.1992 68.461 50.0292L67.0438 55.9C65.4806 56.3829 63.9612 57.0469 62.5148 57.8468L57.4891 54.7379C56.7732 54.3002 55.8674 54.4059 55.283 55.0246L49.6291 60.8652C49.0447 61.4688 48.9278 62.4196 49.3515 63.144L52.3611 68.3356C51.5868 69.8297 50.9585 71.3842 50.4764 73.0141L44.7932 74.478C43.9897 74.6893 43.4199 75.4288 43.4199 76.289V84.5442C43.4199 85.4045 43.9897 86.144 44.7932 86.3553L50.4764 87.8192C50.9439 89.434 51.5868 91.0035 52.3611 92.4976L49.3515 97.6892C48.9278 98.4287 49.0301 99.3644 49.6291 99.9681L55.283 105.809C55.8674 106.412 56.7878 106.533 57.4891 106.095L62.5148 102.986C63.9612 103.786 65.4806 104.435 67.0438 104.933L68.461 110.804C68.6655 111.634 69.3814 112.223 70.2141 112.223H78.2057C79.0384 112.223 79.7543 111.634 79.9588 110.804L81.376 104.933C82.9392 104.45 84.4586 103.786 85.905 102.986L90.9307 106.095C91.6466 106.533 92.5524 106.427 93.1368 105.809L98.7907 99.9681C99.3751 99.3644 99.492 98.4136 99.0683 97.6892L96.0587 92.4976C96.833 91.0035 97.4613 89.434 97.9434 87.8192L103.627 86.3553C104.43 86.144 105 85.4045 105 84.5442V76.3041C104.985 75.4288 104.43 74.6893 103.627 74.478ZM101.377 83.0803L96.0441 84.4537C95.4013 84.6197 94.8899 85.1328 94.7292 85.812C94.2325 87.8343 93.4582 89.7811 92.4209 91.577C92.0849 92.1656 92.0849 92.9051 92.4209 93.4937L95.2552 98.3533L91.6174 102.126L86.913 99.1984C86.3433 98.8513 85.6274 98.8513 85.0576 99.1984C83.3191 100.27 81.4344 101.07 79.4767 101.583C78.8339 101.749 78.3225 102.277 78.1618 102.941L76.8177 108.435H71.6605L70.331 102.926C70.1703 102.262 69.6736 101.734 69.0161 101.568C67.0584 101.055 65.1738 100.255 63.4352 99.1833C62.8655 98.8362 62.1496 98.8362 61.5798 99.1833L56.8755 102.111L53.223 98.3533L56.0573 93.4937C56.3933 92.9051 56.3933 92.1656 56.0573 91.577C55.02 89.7811 54.2457 87.8343 53.749 85.812C53.5883 85.1479 53.0769 84.6197 52.4341 84.4537L47.1162 83.0652V77.7378L52.4487 76.3645C53.0916 76.1985 53.6029 75.6853 53.7636 75.0062C54.2603 72.9839 55.0346 71.0371 56.0719 69.2411C56.408 68.6525 56.408 67.913 56.0719 67.3245L53.2376 62.4649L56.8755 58.6919L61.5798 61.6198C62.1496 61.9669 62.8655 61.9669 63.4352 61.6198C65.1738 60.5482 67.0584 59.7484 69.0161 59.2352C69.659 59.0692 70.1703 58.541 70.331 57.877L71.6751 52.3836H76.8323L78.1618 57.8921C78.3225 58.5561 78.8193 59.0843 79.4767 59.2503C81.4344 59.7635 83.3191 60.5633 85.0576 61.6348C85.6274 61.982 86.3433 61.982 86.913 61.6348L91.6174 58.707L95.2698 62.48L92.4355 67.3396C92.0995 67.9281 92.0995 68.6676 92.4355 69.2562C93.4728 71.0521 94.2471 72.999 94.7439 75.0213C94.9046 75.6853 95.4159 76.2136 96.0587 76.3796L101.377 77.768V83.0803Z" fill="#553D67"/>
<path d="M74.2175 65.4531C66.2114 65.4531 59.7393 72.1539 59.7393 80.4091C59.7393 88.6642 66.226 95.365 74.2175 95.365C82.209 95.365 88.6957 88.6642 88.6957 80.4091C88.6957 72.1539 82.2236 65.4682 74.2175 65.4531ZM74.2175 91.6373C68.2129 91.6373 63.3625 86.6118 63.3625 80.4242C63.3625 74.2365 68.2275 69.211 74.2175 69.211C80.2221 69.211 85.0725 74.2365 85.0725 80.4242C85.0871 86.6118 80.2221 91.6222 74.2175 91.6373Z" fill="#553D67"/>
<path d="M83.2754 22.4417H86.8986V52.3687H83.2754V22.4417Z" fill="#553D67"/>
<path d="M7.24642 95.3801V102.866C7.24642 103.892 8.04995 104.737 9.05802 104.737H47.0725V100.994H10.855V95.3801H32.5797C32.8573 95.3801 33.1348 95.3198 33.3832 95.199L40.6296 91.4563C41.2432 91.1393 41.6377 90.4904 41.6377 89.7811C41.6377 89.0718 41.2432 88.4228 40.6296 88.1059L33.3832 84.3631C33.1348 84.2273 32.8573 84.1669 32.5797 84.1518H10.855V20.5701H79.6522C83.6552 20.5701 86.8986 17.2197 86.8986 13.0846V9.35691C86.8986 8.33067 86.0951 7.48553 85.087 7.48553H79.6522V11.2283H83.2754V13.0997C83.2754 15.1673 81.6537 16.8424 79.6522 16.8424C77.6507 16.8424 76.029 15.1673 76.029 13.0997V7.48553C76.029 5.41795 77.6507 3.74277 79.6522 3.74277H86.8986C88.9001 3.74277 90.5218 5.41795 90.5218 7.48553V50.4971H94.145V7.48553C94.145 3.35038 90.9017 0 86.8986 0H7.24642C3.24336 0 0 3.35038 0 7.48553V13.0997C0 17.2348 3.24336 20.5852 7.24642 20.5852V84.1669H5.43481C2.42521 84.1518 0 86.6722 0 89.766C0 92.8598 2.42521 95.3801 5.43481 95.3801H7.24642ZM3.62321 13.0846V7.48553C3.62321 5.41795 5.24489 3.74277 7.24642 3.74277H73.4284C72.771 4.87465 72.435 6.17254 72.4204 7.48553V13.0997C72.4204 14.4127 72.771 15.7106 73.4284 16.8424H7.24642C5.24489 16.8274 3.62321 15.1522 3.62321 13.0846ZM35.7792 89.766L32.156 91.6374H30.7681V87.8946H32.156L35.7792 89.766ZM3.62321 89.766C3.62321 88.7398 4.42674 87.8946 5.43481 87.8946H27.1595V91.6374H5.43481C4.42674 91.6374 3.62321 90.7922 3.62321 89.766Z" fill="#553D67"/>
<path d="M0 28.0557H3.62317V65.4531H0V28.0557Z" fill="#553D67"/>
<path d="M70.6086 29.9269V26.1842H47.0724C46.5903 26.1842 46.1374 26.3803 45.7867 26.7275L42.4849 30.1382C34.5811 24.1468 23.6238 25.0221 16.6988 32.1907C15.9975 32.9151 15.9975 34.1074 16.6988 34.8318L29.4969 48.0522C29.8329 48.3993 30.3004 48.5955 30.7826 48.6106H48.884C49.8775 48.6106 50.6956 47.7805 50.6956 46.7392C50.6956 41.4722 48.7379 36.4164 45.217 32.5982L47.8321 29.8967H70.6086V29.9269ZM46.9701 44.8829H31.5277L20.6142 33.6093C26.1805 29.0063 33.9967 28.6894 39.899 32.8396L34.9463 37.9558L37.503 40.5968L42.6749 35.2543C45.0709 37.8954 46.5757 41.276 46.9701 44.8829Z" fill="#553D67"/>
<path d="M74.2173 26.1843H77.8405V29.9272H74.2173V26.1843Z" fill="#553D67"/>
<path d="M19.9131 54.2246H23.5363V57.9673H19.9131V54.2246Z" fill="#553D67"/>
<path d="M27.1594 54.2246H45.2609V57.9673H27.1594V54.2246Z" fill="#553D67"/>
<path d="M16.2898 61.7102H45.2609V65.4529H16.2898V61.7102Z" fill="#553D67"/>
<path d="M56.1157 33.6548H59.7389V37.3975H56.1157V33.6548Z" fill="#553D67"/>
<path d="M63.3623 33.6548H77.8406V37.3975H63.3623V33.6548Z" fill="#553D67"/>
<path d="M56.1157 41.1401H77.8403V44.8828H56.1157V41.1401Z" fill="#553D67"/>
<path d="M16.2898 69.196H39.826V72.9387H16.2898V69.196Z" fill="#553D67"/>
</svg>
