<svg width="27" height="24" viewBox="0 0 27 24" fill="none" xmlns="http://www.w3.org/2000/svg">
<path d="M2.46484 13.5001H20.6161L12.6861 20.8201C12.0523 21.4051 12.0523 22.3651 12.6861 22.9501C13.3198 23.5351 14.3436 23.5351 14.9773 22.9501L25.6861 13.0651C26.3198 12.4801 26.3198 11.5351 25.6861 10.9501L14.9936 1.05006C14.69 0.769177 14.2778 0.611328 13.848 0.611328C13.4181 0.611328 13.0059 0.769177 12.7023 1.05006C12.0686 1.63506 12.0686 2.58006 12.7023 3.16506L20.6161 10.5001H2.46484C1.57109 10.5001 0.839844 11.1751 0.839844 12.0001C0.839844 12.8251 1.57109 13.5001 2.46484 13.5001Z" fill="#553D67"/>
</svg>
