<svg width="27" height="22" viewBox="0 0 27 22" fill="none" xmlns="http://www.w3.org/2000/svg">
<path d="M25.9436 3.09528C25.1255 3.47038 24.2226 3.69701 23.3428 3.84549C23.7596 3.77516 24.3769 3.0015 24.6239 2.69673C25.002 2.22003 25.3185 1.68082 25.4882 1.09472C25.5114 1.04783 25.5268 0.99313 25.4805 0.954057C25.4265 0.930613 25.3879 0.946242 25.3416 0.961871C24.3538 1.49327 23.3351 1.884 22.247 2.15752C22.1544 2.18096 22.0926 2.15752 22.0309 2.10281C21.9383 2.00122 21.8534 1.89963 21.7608 1.82149C21.3055 1.43075 20.8116 1.11817 20.2637 0.891539C19.5382 0.594581 18.7433 0.461732 17.9639 0.516434C17.2076 0.563323 16.459 0.782134 15.7876 1.14161C15.1085 1.50108 14.5066 1.99341 14.0281 2.59514C13.5342 3.2125 13.1638 3.94708 12.9785 4.72855C12.8011 5.47876 12.8088 6.22115 12.9245 6.97918C12.94 7.10421 12.9322 7.11984 12.8165 7.10421C8.57199 6.46341 5.0452 4.92391 2.18981 1.62612C2.06634 1.48546 1.99688 1.48545 1.89656 1.63393C0.646361 3.5329 1.25603 6.58063 2.81491 8.08105C3.02328 8.28423 3.23936 8.47959 3.47088 8.65933C3.38599 8.67496 2.34416 8.56556 1.41809 8.08105C1.29461 8.0029 1.23287 8.04979 1.21744 8.19045C1.20972 8.39363 1.22516 8.58119 1.24831 8.80781C1.48754 10.7302 2.8072 12.512 4.60532 13.2075C4.8214 13.3013 5.05292 13.3794 5.28444 13.4185C4.87542 13.5122 4.45097 13.5748 3.27023 13.481C3.1236 13.4497 3.06958 13.5279 3.1236 13.6685C4.01109 16.1145 5.91725 16.8413 7.35266 17.2477C7.5456 17.2789 7.73853 17.2789 7.93146 17.3258C7.92374 17.3414 7.90831 17.3414 7.90059 17.3571C7.42984 18.0917 5.77834 18.6309 5.01433 18.9044C3.61751 19.3967 2.10492 19.6155 0.630926 19.4748C0.391691 19.4436 0.345387 19.4436 0.283649 19.4748C0.221911 19.5139 0.275932 19.5686 0.353104 19.6311C0.654078 19.8343 0.955051 20.0062 1.26374 20.1782C2.19753 20.6783 3.17762 21.0769 4.1963 21.366C9.45947 22.8352 15.3941 21.7567 19.3453 17.7791C22.4476 14.6532 23.5358 10.3473 23.5358 6.0336C23.5358 5.86168 23.7364 5.7679 23.8522 5.68194C24.6625 5.06458 25.303 4.33 25.905 3.50946C26.0439 3.3219 26.0284 3.1578 26.0284 3.09528C26.0284 3.08746 26.0284 3.07184 26.0284 3.07184C26.0362 3.02495 26.0516 3.04839 25.9436 3.09528Z" fill="#553D67"/>
<path fill-rule="evenodd" clip-rule="evenodd" d="M8.78809 21.9442C8.78809 21.8973 9.2434 21.9442 8.78809 21.9442C8.78809 21.9207 8.84211 21.9442 8.78809 21.9442Z" fill="#553D67"/>
<path fill-rule="evenodd" clip-rule="evenodd" d="M17.9022 0.547852C17.8714 0.571296 17.8328 0.571296 17.7942 0.547852C17.8405 0.547852 17.8791 0.547852 17.9022 0.547852Z" fill="#553D67"/>
</svg>
